<svg xmlns="http://www.w3.org/2000/svg" viewBox="0 0 240 240" role="img" aria-label="优雅头像占位图">
  <defs>
    <linearGradient id="bg" x1="28" y1="16" x2="210" y2="228" gradientUnits="userSpaceOnUse">
      <stop stop-color="#fff7e8"/>
      <stop offset="0.56" stop-color="#ead5b9"/>
      <stop offset="1" stop-color="#c99f6f"/>
    </linearGradient>
    <linearGradient id="line" x1="64" y1="48" x2="178" y2="190" gradientUnits="userSpaceOnUse">
      <stop stop-color="#9a6737"/>
      <stop offset="1" stop-color="#60401f"/>
    </linearGradient>
    <filter id="softShadow" x="-20%" y="-20%" width="140%" height="140%">
      <feDropShadow dx="0" dy="10" stdDeviation="12" flood-color="#6c4a28" flood-opacity="0.20"/>
    </filter>
  </defs>
  <rect width="240" height="240" rx="120" fill="url(#bg)"/>
  <circle cx="120" cy="120" r="104" fill="none" stroke="#fffaf1" stroke-width="2" opacity="0.72"/>
  <g filter="url(#softShadow)">
    <circle cx="120" cy="88" r="38" fill="#fffaf1" opacity="0.96"/>
    <path d="M57 190c9.5-38.5 33.5-61 63-61s53.5 22.5 63 61" fill="#fffaf1" opacity="0.96"/>
  </g>
  <path d="M73 63c19-22 50-30 80-18 17 7 29 20 35 36" fill="none" stroke="url(#line)" stroke-width="7" stroke-linecap="round" opacity="0.72"/>
  <path d="M77 178c11-19 25-29 43-29s32 10 43 29" fill="none" stroke="url(#line)" stroke-width="5" stroke-linecap="round" opacity="0.5"/>
  <text x="120" y="218" text-anchor="middle" font-family="Georgia, 'Times New Roman', serif" font-size="22" font-weight="700" fill="#7a5229" opacity="0.84">YH</text>
</svg>
